<svg xmlns="http://www.w3.org/2000/svg" viewBox="0 0 333.15 90.29"><defs><style>.cls-1{fill:#201775;}.cls-2{fill:#5dca7b;}.cls-2,.cls-3{isolation:isolate;}.cls-3{fill:#4194f4;}</style></defs><g id="Layer_2" data-name="Layer 2"><g id="Layer_1-2" data-name="Layer 1"><path class="cls-1" d="M145.31,2.68v41.5h-6.69L120,19.06V44.18h-8.63V2.68H118l18.71,25v-25Z"/><path class="cls-1" d="M177.62,31.31H156.23c.5,3.85,3.23,6.3,7.35,6.3a6.86,6.86,0,0,0,6.3-3.34l6.68,3.17c-1.84,4.46-6.85,7.41-13.09,7.41-9.64,0-15.93-7.13-15.93-15.93,0-9.08,6.68-15.82,15.37-15.82a14.84,14.84,0,0,1,15.1,15A10.81,10.81,0,0,1,177.62,31.31Zm-8.47-6.12a5.9,5.9,0,0,0-6.24-5.41c-3.28,0-5.68,1.9-6.52,5.41Z"/><path class="cls-1" d="M179.68,29c0-9.19,7.24-15.87,16.27-15.87S212.21,19.78,212.21,29,205,44.85,196,44.85,179.68,38.17,179.68,29Zm23.9,0c0-4.84-3.07-8.35-7.63-8.35s-7.64,3.51-7.64,8.35,3.07,8.36,7.64,8.36S203.58,33.88,203.58,29Z"/><path class="cls-1" d="M247.53,29c0,8.86-6.69,15.88-15.49,15.88a12.78,12.78,0,0,1-8.69-3.06V55.32H215V13.77h7.8v3.17a12,12,0,0,1,9.3-3.84A15.5,15.5,0,0,1,247.53,29Zm-8.64,0c0-4.84-3.28-8.35-7.85-8.35s-7.69,3.45-7.69,8.35,3.18,8.36,7.69,8.36S238.89,33.82,238.89,29Z"/><path class="cls-1" d="M249.76,29c0-9.19,7.24-15.87,16.26-15.87S282.29,19.78,282.29,29,275.05,44.85,266,44.85,249.76,38.17,249.76,29Zm23.89,0c0-4.84-3.06-8.35-7.63-8.35s-7.63,3.51-7.63,8.35,3.06,8.36,7.63,8.36S273.65,33.88,273.65,29Z"/><path class="cls-1" d="M285.07,2.68h8.36v41.5h-8.36Z"/><path class="cls-1" d="M296.77,2.68h8.36V11h-8.36Zm0,11.09h8.36V44.18h-8.36Z"/><path class="cls-1" d="M306.8,36.1,313,33.21c1.62,3.4,4.35,5.23,7.8,5.23,2.62,0,4.29-1,4.29-2.73,0-2-2.45-2.61-3.51-2.89l-5.35-1.39C310.7,30,308,26.75,308,22.57c0-5.63,4.85-9.47,12-9.47,6.24,0,11.2,3,13.15,8L326.91,24c-1-2.62-3.62-4.18-6.91-4.18-2.45,0-3.9.95-3.9,2.51,0,1.84,2.12,2.4,3.12,2.67l5.63,1.51c5.4,1.45,8.3,4.57,8.3,8.91,0,5.63-5.07,9.47-12.37,9.47C314.15,44.85,308.69,41.62,306.8,36.1Z"/><path class="cls-1" d="M134.56,63.55V87.22h-4V70.7l-7.44,10h-.44l-7.44-10.26V87.22h-4V63.55H115l7.85,10.71,7.88-10.71Z"/><path class="cls-1" d="M154.14,79.76H141.56a4.63,4.63,0,0,0,4.82,4.48,4.51,4.51,0,0,0,4.17-2.38l3.14,1.52c-1.05,2.45-3.84,4.23-7.34,4.23a8.62,8.62,0,0,1-8.77-9c0-5.15,3.66-8.93,8.49-8.93A8.16,8.16,0,0,1,154.33,78,7.68,7.68,0,0,1,154.14,79.76Zm-3.91-3a4.1,4.1,0,0,0-4.16-3.9,4.38,4.38,0,0,0-4.45,3.9Z"/><path class="cls-1" d="M173.71,63.55V87.22h-3.62v-2a7.23,7.23,0,0,1-5.63,2.39,8.95,8.95,0,0,1,0-17.89A6.93,6.93,0,0,1,169.9,72V63.55ZM169.9,78.68c0-3.15-2.13-5.43-5.06-5.43a5.43,5.43,0,0,0,0,10.83C167.77,84.08,169.9,81.86,169.9,78.68Z"/><path class="cls-1" d="M177.24,63.55h3.81v4.29h-3.81Zm0,6.55h3.81V87.22h-3.81Z"/><path class="cls-1" d="M183.65,78.65a8.64,8.64,0,0,1,8.81-8.93,7.92,7.92,0,0,1,7.65,4.92l-3.3,1.65a4.51,4.51,0,0,0-4.35-3c-2.8,0-4.83,2.25-4.83,5.43s2,5.4,4.83,5.4a4.45,4.45,0,0,0,4.35-3l3.3,1.68a8,8,0,0,1-7.65,4.9A8.69,8.69,0,0,1,183.65,78.65Z"/><path class="cls-1" d="M216.48,75.79V87.22h-3.6v-1.9a6.36,6.36,0,0,1-5.08,2.29c-3.81,0-6.23-2.16-6.23-5.09,0-2.54,2-4.22,5.47-5l5.62-1.2v-.54c0-1.59-1.3-2.64-3.21-2.64a4.1,4.1,0,0,0-3.94,2.64l-3.3-1.66c1-2.6,3.84-4.41,7.24-4.41C213.62,69.72,216.48,72.23,216.48,75.79Zm-3.82,4.54V79.22L207.8,80.3c-1.43.32-2.25,1.14-2.25,2.19,0,1.3,1,2.1,2.7,2.1A4.24,4.24,0,0,0,212.66,80.33Z"/><path class="cls-1" d="M219.53,63.55h3.81V87.22h-3.81Z"/><path class="cls-1" d="M232.11,75.37c0-7.05,5-12.2,11.78-12.2,5,0,8.68,2.86,9.89,6.17l-3.56,1.71a6.56,6.56,0,0,0-6.33-4.25c-4.6,0-7.78,3.49-7.78,8.57S239.29,84,243.89,84a6.56,6.56,0,0,0,6.33-4.25l3.56,1.71c-1.21,3.31-4.9,6.17-9.89,6.17C237.13,87.61,232.11,82.43,232.11,75.37Z"/><path class="cls-1" d="M272.11,79.76H259.53a4.63,4.63,0,0,0,4.83,4.48,4.5,4.5,0,0,0,4.16-2.38l3.14,1.52c-1,2.45-3.84,4.23-7.34,4.23a8.61,8.61,0,0,1-8.76-9c0-5.15,3.65-8.93,8.48-8.93A8.16,8.16,0,0,1,272.3,78,7.14,7.14,0,0,1,272.11,79.76Zm-3.91-3A4.1,4.1,0,0,0,264,72.9a4.39,4.39,0,0,0-4.45,3.9Z"/><path class="cls-1" d="M289.62,76.1V87.22H285.8V77.06a3.64,3.64,0,1,0-7.27,0V87.22h-3.81V70.1h3.59v2.06a5.43,5.43,0,0,1,4.86-2.44A6.13,6.13,0,0,1,289.62,76.1Z"/><path class="cls-1" d="M294.7,81.47V73.53h-3.11V70.1h.5a2.35,2.35,0,0,0,2.61-2.57V64.79h3.81V70.1h4.07v3.43h-4.07v7.94c0,1.47.61,2.83,3,2.83a8.24,8.24,0,0,0,1.14-.09v3.05a14.37,14.37,0,0,1-2,.15C296.86,87.41,294.7,85.25,294.7,81.47Z"/><path class="cls-1" d="M320.72,79.76H308.14A4.63,4.63,0,0,0,313,84.24a4.5,4.5,0,0,0,4.16-2.38l3.15,1.52c-1,2.45-3.85,4.23-7.34,4.23a8.62,8.62,0,0,1-8.77-9c0-5.15,3.65-8.93,8.48-8.93A8.16,8.16,0,0,1,320.91,78,7.14,7.14,0,0,1,320.72,79.76Zm-3.91-3a4.1,4.1,0,0,0-4.16-3.9,4.39,4.39,0,0,0-4.45,3.9Z"/><path class="cls-1" d="M333.15,69.91v3.43h-2.07c-2.35,0-3.94,1.53-3.94,4.19v9.69h-3.81V70.1h3.59v2.38c.89-1.87,2.54-2.57,4.64-2.57Z"/><path class="cls-2" d="M0,67H5.92A21.56,21.56,0,0,1,27.45,88.57v1.72H39.29V88.57A33.47,33.47,0,0,0,11.84,55.73V44.41H0Z"/><path class="cls-3" d="M55.73,78.45H44.41V90.29H67V84.37A21.56,21.56,0,0,1,88.57,62.84h1.72V51H88.57A33.47,33.47,0,0,0,55.73,78.45Z"/><path class="cls-2" d="M51,1.72A33.47,33.47,0,0,0,78.45,34.56V45.88H90.29V23.25H84.37A21.56,21.56,0,0,1,62.84,1.72V0H51Z"/><path class="cls-3" d="M23.25,5.92A21.56,21.56,0,0,1,1.72,27.45H0V39.29H1.72A33.47,33.47,0,0,0,34.56,11.84H45.88V0H23.25Z"/></g></g></svg>