<svg xmlns="http://www.w3.org/2000/svg" viewBox="0 0 176.86 176.86"><defs><style>.cls-1{fill:#5dca7b;}.cls-1,.cls-2{isolation:isolate;}.cls-2{fill:#4194f4;}</style></defs><g id="Layer_2" data-name="Layer 2"><g id="Layer_1-2" data-name="Layer 1"><path class="cls-1" d="M0,131.32H11.6a42.22,42.22,0,0,1,42.17,42.17v3.37H77v-3.37a65.56,65.56,0,0,0-53.77-64.33V87H0Z"/><path class="cls-2" d="M109.16,153.67H87v23.19h44.34v-11.6a42.22,42.22,0,0,1,42.17-42.17h3.37V99.9h-3.37A65.55,65.55,0,0,0,109.16,153.67Z"/><path class="cls-1" d="M99.9,3.36A65.57,65.57,0,0,0,153.67,67.7V89.88h23.19V45.54h-11.6A42.22,42.22,0,0,1,123.09,3.36V0H99.9Z"/><path class="cls-2" d="M45.54,11.6A42.22,42.22,0,0,1,3.36,53.77H0V77H3.36A65.57,65.57,0,0,0,67.7,23.19H89.88V0H45.54Z"/></g></g></svg>