<svg id="Layer_1" data-name="Layer 1" xmlns="http://www.w3.org/2000/svg" viewBox="0 0 1300 900"><defs><style>.cls-1{fill:#5dca7b;}.cls-1,.cls-3{isolation:isolate;}.cls-2,.cls-3{fill:#fff;}</style></defs><rect class="cls-1" x="-34" y="-26" width="1368" height="952"/><path class="cls-2" d="M628.74,407.54V449h-6.69l-18.66-25.12V449h-8.63v-41.5h6.62l18.72,24.95V407.54Z"/><path class="cls-2" d="M661,436.17H639.65c.51,3.84,3.24,6.29,7.36,6.29a6.85,6.85,0,0,0,6.29-3.34L660,442.3c-1.84,4.45-6.86,7.41-13.09,7.41-9.64,0-15.94-7.13-15.94-15.94,0-9.07,6.69-15.81,15.38-15.81a14.83,14.83,0,0,1,15.09,15A10.9,10.9,0,0,1,661,436.17ZM652.58,430a5.91,5.91,0,0,0-6.24-5.4c-3.29,0-5.68,1.89-6.52,5.4Z"/><path class="cls-2" d="M663.11,433.83c0-9.19,7.24-15.87,16.26-15.87s16.27,6.68,16.27,15.87-7.24,15.88-16.27,15.88S663.11,443,663.11,433.83Zm23.89,0c0-4.85-3.06-8.35-7.63-8.35s-7.63,3.5-7.63,8.35,3.06,8.36,7.63,8.36S687,438.73,687,433.83Z"/><path class="cls-2" d="M731,433.83c0,8.86-6.68,15.88-15.48,15.88a12.72,12.72,0,0,1-8.69-3.07v13.54h-8.36V418.62h7.8v3.18a12,12,0,0,1,9.3-3.84C724.16,418,731,424.92,731,433.83Zm-8.63,0c0-4.85-3.29-8.35-7.85-8.35s-7.69,3.45-7.69,8.35,3.17,8.36,7.69,8.36S722.32,438.68,722.32,433.83Z"/><path class="cls-2" d="M733.18,433.83c0-9.19,7.24-15.87,16.27-15.87s16.26,6.68,16.26,15.87-7.24,15.88-16.26,15.88S733.18,443,733.18,433.83Zm23.9,0c0-4.85-3.06-8.35-7.63-8.35s-7.63,3.5-7.63,8.35,3.06,8.36,7.63,8.36S757.08,438.73,757.08,433.83Z"/><path class="cls-2" d="M768.5,407.54h8.36V449H768.5Z"/><path class="cls-2" d="M780.2,407.54h8.35v8.35H780.2Zm0,11.08h8.35V449H780.2Z"/><path class="cls-2" d="M790.23,441l6.18-2.9c1.61,3.4,4.34,5.24,7.8,5.24,2.62,0,4.29-1.06,4.29-2.73,0-2-2.45-2.62-3.51-2.9l-5.35-1.39c-5.51-1.45-8.19-4.68-8.19-8.86,0-5.62,4.85-9.46,12-9.46,6.24,0,11.19,3,13.14,8l-6.24,2.9c-1-2.62-3.62-4.18-6.9-4.18-2.45,0-3.9.95-3.9,2.51,0,1.83,2.11,2.39,3.12,2.67l5.62,1.5c5.41,1.45,8.3,4.57,8.3,8.92,0,5.62-5.07,9.47-12.36,9.47C797.58,449.71,792.12,446.48,790.23,441Z"/><path class="cls-2" d="M618,468.41v23.67h-4V475.56l-7.44,10h-.44l-7.44-10.27v16.78h-4V468.41h3.81l7.85,10.71,7.88-10.71Z"/><path class="cls-2" d="M637.56,484.61H625a4.63,4.63,0,0,0,4.83,4.48,4.48,4.48,0,0,0,4.16-2.38l3.15,1.53c-1,2.44-3.85,4.22-7.34,4.22a8.62,8.62,0,0,1-8.77-9c0-5.15,3.65-8.93,8.48-8.93a8.16,8.16,0,0,1,8.26,8.33A7.11,7.11,0,0,1,637.56,484.61Zm-3.9-2.95a4.11,4.11,0,0,0-4.17-3.91,4.38,4.38,0,0,0-4.44,3.91Z"/><path class="cls-2" d="M657.14,468.41v23.67h-3.63v-2a7.23,7.23,0,0,1-5.62,2.38,8.95,8.95,0,0,1,0-17.89,6.92,6.92,0,0,1,5.46,2.29v-8.45Zm-3.82,15.12c0-3.14-2.13-5.43-5.05-5.43a5.43,5.43,0,0,0,0,10.83C651.19,488.93,653.32,486.71,653.32,483.53Z"/><path class="cls-2" d="M660.66,468.41h3.82v4.29h-3.82Zm0,6.54h3.82v17.13h-3.82Z"/><path class="cls-2" d="M667.08,483.5a8.64,8.64,0,0,1,8.8-8.93,7.94,7.94,0,0,1,7.66,4.93l-3.31,1.65a4.5,4.5,0,0,0-4.35-3c-2.79,0-4.83,2.26-4.83,5.43s2,5.4,4.83,5.4a4.42,4.42,0,0,0,4.35-3.05l3.31,1.69a8,8,0,0,1-7.66,4.89A8.68,8.68,0,0,1,667.08,483.5Z"/><path class="cls-2" d="M699.9,480.64v11.44h-3.59v-1.91a6.34,6.34,0,0,1-5.08,2.29c-3.81,0-6.23-2.16-6.23-5.08,0-2.54,2-4.23,5.47-5l5.62-1.21v-.54c0-1.59-1.3-2.64-3.21-2.64a4.1,4.1,0,0,0-3.94,2.64l-3.3-1.65c1-2.61,3.84-4.42,7.24-4.42C697,474.57,699.9,477.08,699.9,480.64Zm-3.81,4.55v-1.12l-4.86,1.08c-1.43.32-2.26,1.15-2.26,2.2,0,1.3,1,2.09,2.7,2.09A4.24,4.24,0,0,0,696.09,485.19Z"/><path class="cls-2" d="M703,468.41h3.82v23.67H703Z"/><path class="cls-2" d="M715.53,480.23c0-7.05,5-12.2,11.79-12.2,5,0,8.68,2.86,9.88,6.16l-3.56,1.72a6.55,6.55,0,0,0-6.32-4.26c-4.61,0-7.78,3.5-7.78,8.58s3.17,8.61,7.78,8.61a6.55,6.55,0,0,0,6.32-4.26l3.56,1.72c-1.2,3.3-4.89,6.16-9.88,6.16C720.55,492.46,715.53,487.28,715.53,480.23Z"/><path class="cls-2" d="M755.54,484.61H743a4.63,4.63,0,0,0,4.83,4.48,4.5,4.5,0,0,0,4.17-2.38l3.14,1.53c-1.05,2.44-3.84,4.22-7.34,4.22a8.62,8.62,0,0,1-8.77-9c0-5.15,3.66-8.93,8.49-8.93a8.16,8.16,0,0,1,8.26,8.33A7.65,7.65,0,0,1,755.54,484.61Zm-3.91-2.95a4.11,4.11,0,0,0-4.16-3.91,4.38,4.38,0,0,0-4.45,3.91Z"/><path class="cls-2" d="M773,481v11.12h-3.81V481.91a3.64,3.64,0,1,0-7.28,0v10.17h-3.81V475h3.59V477a5.43,5.43,0,0,1,4.86-2.45A6.14,6.14,0,0,1,773,481Z"/><path class="cls-2" d="M778.13,486.33v-7.94H775V475h.51a2.35,2.35,0,0,0,2.61-2.57v-2.73h3.81V475H786v3.44h-4.07v7.94c0,1.46.6,2.83,3,2.83a7,7,0,0,0,1.14-.1v3.05a13,13,0,0,1-2,.16C780.29,492.27,778.13,490.11,778.13,486.33Z"/><path class="cls-2" d="M804.15,484.61H791.57a4.63,4.63,0,0,0,4.83,4.48,4.48,4.48,0,0,0,4.16-2.38l3.14,1.53c-1,2.44-3.84,4.22-7.33,4.22a8.62,8.62,0,0,1-8.77-9c0-5.15,3.65-8.93,8.48-8.93a8.16,8.16,0,0,1,8.26,8.33A7.11,7.11,0,0,1,804.15,484.61Zm-3.91-2.95a4.11,4.11,0,0,0-4.16-3.91,4.4,4.4,0,0,0-4.45,3.91Z"/><path class="cls-2" d="M816.57,474.76v3.44h-2.06c-2.35,0-3.94,1.52-3.94,4.19v9.69h-3.81V475h3.59v2.39c.89-1.88,2.54-2.58,4.63-2.58Z"/><path class="cls-3" d="M483.43,471.9h5.92a21.56,21.56,0,0,1,21.53,21.53v1.71h11.84v-1.71a33.47,33.47,0,0,0-27.45-32.85V449.26H483.43Z"/><path class="cls-3" d="M539.16,483.31H527.83v11.83h22.64v-5.92A21.56,21.56,0,0,1,572,467.69h1.72V455.86H572A33.46,33.46,0,0,0,539.16,483.31Z"/><path class="cls-3" d="M534.43,406.57a33.47,33.47,0,0,0,27.45,32.85v11.32h11.84V428.1H567.8a21.55,21.55,0,0,1-21.53-21.53v-1.71H534.43Z"/><path class="cls-3" d="M506.67,410.78a21.55,21.55,0,0,1-21.53,21.53h-1.71v11.83h1.71A33.47,33.47,0,0,0,518,416.69h11.32V404.86H506.67Z"/></svg>