<svg id="Layer_1" data-name="Layer 1" xmlns="http://www.w3.org/2000/svg" viewBox="0 0 1300 900"><defs><style>.cls-1{fill:#201775;}.cls-2{fill:#5dca7b;}.cls-2,.cls-3{isolation:isolate;}.cls-3{fill:#4194f4;}</style></defs><rect class="cls-1" x="-34" y="-26" width="1368" height="952"/><path class="cls-2" d="M561.57,492.89h11.6a42.22,42.22,0,0,1,42.17,42.18v3.36h23.19v-3.36a65.57,65.57,0,0,0-53.77-64.34V448.55H561.57Z"/><path class="cls-3" d="M670.73,515.24H648.55v23.19h44.34v-11.6a42.22,42.22,0,0,1,42.18-42.17h3.36V461.47h-3.36A65.56,65.56,0,0,0,670.73,515.24Z"/><path class="cls-2" d="M661.47,364.93a65.57,65.57,0,0,0,53.77,64.34v22.18h23.19V407.11h-11.6a42.22,42.22,0,0,1-42.17-42.18v-3.36H661.47Z"/><path class="cls-3" d="M607.11,373.17a42.22,42.22,0,0,1-42.18,42.17h-3.36v23.19h3.36a65.56,65.56,0,0,0,64.34-53.77h22.18V361.57H607.11Z"/></svg>